<?xml version="1.0" encoding="UTF-8"?>
<!DOCTYPE svg PUBLIC "-//W3C//DTD SVG 1.1//EN" "http://www.w3.org/Graphics/SVG/1.1/DTD/svg11.dtd">
<!-- Creator: CorelDRAW X8 -->
<svg xmlns="http://www.w3.org/2000/svg" xml:space="preserve" width="1000px" height="256px" version="1.1" shape-rendering="geometricPrecision" text-rendering="geometricPrecision" image-rendering="optimizeQuality" fill-rule="evenodd" clip-rule="evenodd"
viewBox="0 0 1000 256"
 xmlns:xlink="http://www.w3.org/1999/xlink">
 <g id="Ebene_x0020_1">
  <metadata id="CorelCorpID_0Corel-Layer"/>
  <path fill="#F07D19" fill-rule="nonzero" d="M292 92c0,-11 0,-18 -1,-21 -7,0 -13,0 -18,1 -6,0 -10,1 -12,2l-4 1 0 -1c0,-1 0,-4 0,-7 0,-4 0,-7 0,-9l0 0c3,0 6,0 10,0l74 0c4,0 7,0 10,0l0 0c0,2 0,5 0,9 0,3 0,6 0,7l0 1c-1,-1 -2,-1 -4,-1 -2,-1 -5,-1 -11,-2 -6,-1 -12,-1 -19,-1 -1,3 -1,10 -1,21l0 39c0,14 1,25 2,33l-1 1c-5,0 -9,0 -13,0l-13 0 0 -1c1,-7 1,-18 1,-33l0 -39z"/>
  <path id="1" fill="#F07D19" fill-rule="nonzero" d="M376 91c0,-13 -1,-23 -2,-33l0 0c6,0 10,0 14,0l13 0 1 0c-2,9 -2,20 -2,33l0 40c0,12 0,23 2,33l-1 0c-5,0 -9,0 -13,0l-14 0 0 0c1,-9 2,-20 2,-33l0 -40z"/>
  <path id="2" fill="#F07D19" fill-rule="nonzero" d="M438 91c0,-12 -1,-23 -2,-33l0 0c4,0 7,0 11,0l7 0 60 73c1,1 1,1 2,2 0,0 0,0 1,0 0,1 0,0 0,0 1,-1 1,-2 1,-3l-2 -39c0,-15 -1,-26 -2,-33l1 0c3,0 5,0 8,0l8 0 0 0c-1,8 -1,19 -1,33l0 74c-4,0 -6,-1 -8,-1 -1,0 -3,0 -4,0 -2,0 -4,0 -5,0l-63 -74c0,0 -1,0 -1,-1 0,2 0,3 0,4l-1 39c0,14 0,25 1,32l0 1c-3,-1 -5,-1 -8,-1l-7 1 0 -1c1,-7 2,-18 3,-33l1 -40z"/>
  <path id="3" fill="#F07D19" fill-rule="nonzero" d="M621 115c0,25 1,41 1,50 -1,-1 -6,-1 -13,-1 -8,0 -12,0 -14,1 1,-7 1,-22 1,-45 -3,-5 -9,-15 -18,-30l-21 -32c2,0 7,0 16,0 7,0 11,0 13,0l6 12 7 12 7 12 7 12c11,-17 20,-34 27,-48 1,0 4,0 10,0 3,0 6,0 7,0l-12 18 -11 17 -7 11c-2,4 -4,8 -6,11z"/>
  <path id="4" fill="#666666" fill-rule="nonzero" d="M687 55l13 0c18,38 31,64 40,80l42 -80 13 0 4 36c2,16 4,30 5,41 1,11 3,22 4,33 -1,-1 -6,-1 -13,-1 -5,0 -8,0 -10,1 -3,-34 -5,-60 -7,-77l-6 10 -6 11 -6 11c-2,4 -4,8 -6,11l-5 10 -6 12 -5 11 -9 0 -9 -18 -8 -16 -10 -19 -9 -18 -4 24c-1,13 -3,22 -3,30 -1,7 -2,13 -2,18 -1,-1 -3,-1 -8,-1 -4,0 -6,0 -8,1 6,-32 13,-69 19,-110z"/>
  <path id="5" fill="#666666" fill-rule="nonzero" d="M866 128l-13 3c-2,1 -4,1 -5,3 -2,1 -3,2 -3,4 -1,1 -2,2 -2,4 0,1 0,3 0,5 0,2 0,4 2,6 2,2 4,3 6,3 5,0 9,-2 12,-6 1,0 2,-1 2,-3 1,-2 1,-3 1,-4l0 -15zm21 23c0,3 1,4 2,5 2,1 4,1 8,1 1,1 1,2 2,4 -3,1 -6,3 -9,4 -4,0 -7,1 -11,1 -3,0 -6,-1 -8,-2 -2,-2 -4,-4 -5,-8l0 0c-7,7 -14,10 -23,10 -6,0 -11,-2 -16,-5 -4,-3 -6,-7 -6,-13 0,-5 2,-10 6,-14 5,-4 11,-7 19,-9l19 -5c1,-1 1,-1 1,-2 0,-7 -1,-11 -3,-13 -1,-3 -4,-4 -8,-4 -4,0 -7,1 -11,3 -3,2 -7,6 -9,10l-6 0 -3 -13 0 0c3,-2 7,-4 13,-6 6,-2 12,-3 17,-3 5,0 9,1 14,2 5,1 9,2 11,5 4,4 7,10 7,20 0,0 0,5 -1,15 0,9 0,15 0,17z"/>
  <path id="6" fill="#666666" fill-rule="nonzero" d="M913 64c0,-3 1,-6 4,-8 2,-2 5,-4 9,-4 3,0 6,2 8,4 3,2 4,5 4,8 0,3 -1,6 -4,8 -2,3 -5,4 -8,4 -4,0 -7,-1 -9,-4 -3,-2 -4,-5 -4,-8zm2 62c0,-15 -1,-25 -2,-31l1 -2c0,0 2,0 5,0 2,0 5,0 6,0 3,0 6,0 12,0 1,0 1,1 1,2 -1,14 -1,23 -1,29l0 11c0,12 0,21 1,29l0 0c-5,0 -9,0 -12,0 -4,0 -8,0 -13,0l0 0c1,-7 2,-17 2,-29l0 -9z"/>
  <path id="7" fill="#666666" fill-rule="nonzero" d="M965 131l0 -45c0,-14 -1,-24 -2,-31l0 0c3,0 8,-1 13,-2 5,-2 9,-3 11,-4 1,0 2,1 2,2 -2,11 -2,21 -2,31l0 49c0,13 0,24 2,33l-1 1c-4,0 -8,0 -12,0l-13 0 0 -1c1,-8 2,-19 2,-33z"/>
  <path fill="#666666" fill-rule="nonzero" d="M300 214c1,0 2,0 3,-1 2,-1 2,-3 2,-4 0,-1 0,-2 0,-3 -1,-1 -1,-1 -2,-2 0,0 -1,-1 -1,-1 -1,0 -1,-1 -2,-1 -1,-1 -2,-1 -3,-1 0,-1 -1,-1 -2,-2 -1,0 -1,-1 -2,-1 0,-1 -1,-1 -1,-2 0,-1 0,-2 0,-3 0,-2 0,-3 1,-4 1,-2 2,-3 4,-3 1,-1 2,-1 4,-1 1,0 2,0 3,0 1,0 1,0 2,1 0,0 1,0 1,0 1,1 1,1 1,1l0 0 0 0c0,2 -1,4 -1,5l0 0c-1,-2 -2,-3 -3,-4 -1,-1 -2,-1 -4,-1 -1,0 -2,0 -2,1 -1,0 -2,0 -2,1 0,1 -1,2 -1,3 0,0 1,1 1,2 0,0 0,1 1,1 0,1 0,1 1,1 1,1 1,1 2,1 0,0 0,1 1,1 1,0 2,1 2,1 1,0 2,1 3,1 0,1 1,1 2,2 0,1 1,1 1,2 0,1 0,2 0,3 0,3 -1,5 -2,7 -2,1 -5,2 -8,2 -1,0 -2,0 -3,0 -1,0 -1,0 -2,-1 -1,0 -1,0 -2,0 0,0 -1,-1 -1,-1l0 0 0 0c0,0 0,-1 0,-1l0 -1c0,-1 0,-1 1,-2 0,0 0,-1 0,-1l0 0c1,1 2,3 3,4 2,1 3,1 5,1z"/>
  <path id="1" fill="#666666" fill-rule="nonzero" d="M318 203l8 0c1,0 1,0 1,-1 0,-1 0,-3 -1,-4 -1,-1 -2,-1 -3,-1 0,0 0,0 -1,0 0,0 -1,0 -1,1 0,0 -1,0 -1,1 -1,0 -1,1 -1,1 -1,1 -1,2 -1,3zm12 8l1 1c-1,1 -2,2 -3,3 -2,1 -3,1 -5,1 -2,0 -3,0 -4,-1 -1,0 -3,-1 -3,-2 -2,-2 -2,-4 -2,-7 0,-2 0,-3 0,-5 1,-1 2,-2 3,-3 1,-1 2,-2 3,-2 1,-1 2,-1 3,-1 1,0 2,0 3,1 1,0 2,1 3,1 0,1 1,1 1,2 1,1 1,2 1,3 0,0 0,1 0,2 0,1 0,1 -1,1l-12 0c0,3 0,5 1,6 0,1 1,1 2,2 1,0 2,0 3,0 3,0 5,0 6,-2z"/>
  <path id="2" fill="#666666" fill-rule="nonzero" d="M341 200l0 0c1,-2 2,-3 3,-4 1,0 2,-1 3,-1 0,0 0,0 0,0 1,0 1,0 1,0 0,0 0,0 0,0 0,0 0,0 1,0l0 1 -1 3 0 0c-1,0 -2,0 -3,0 0,0 -1,0 -1,0 -1,0 -1,1 -2,1 0,1 0,2 -1,3 0,0 0,1 0,2l0 2c0,4 0,7 0,9l0 0c0,0 -1,0 -2,0 -1,0 -2,0 -2,0l0 0c0,-2 0,-5 0,-9l0 -2c0,-5 0,-8 0,-9l0 0c1,0 2,0 4,-1 0,0 0,1 0,1l0 4z"/>
  <path id="3" fill="#666666" fill-rule="nonzero" d="M354 189c0,0 -1,-1 -1,-1 0,-1 1,-1 1,-2 1,0 1,-1 2,-1 0,0 1,1 1,1 1,1 1,1 1,2 0,0 0,1 -1,1 0,1 -1,1 -1,1 -1,0 -1,0 -2,-1zm0 16c0,-4 0,-8 -1,-9l1 -1c0,0 1,0 2,0 0,0 1,0 2,0 0,0 0,0 0,1 0,0 0,0 0,0 0,3 0,5 0,8l0 3c0,4 0,6 0,9l0 0c-1,0 -1,0 -2,0 -1,0 -2,0 -2,0l-1 0c1,-2 1,-5 1,-9l0 -2z"/>
  <path id="4" fill="#666666" fill-rule="nonzero" d="M368 203l8 0c1,0 1,0 1,-1 0,-1 -1,-3 -1,-4 -1,-1 -2,-1 -3,-1 0,0 -1,0 -1,0 0,0 -1,0 -1,1 -1,0 -1,0 -1,1 -1,0 -1,1 -2,1 0,1 0,2 0,3zm12 8l1 1c-1,1 -2,2 -4,3 -1,1 -2,1 -4,1 -2,0 -3,0 -4,-1 -2,0 -3,-1 -4,-2 -1,-2 -2,-4 -2,-7 0,-2 1,-3 1,-5 1,-1 2,-2 2,-3 1,-1 2,-2 4,-2 1,-1 2,-1 3,-1 1,0 2,0 3,1 1,0 2,1 2,1 1,1 2,1 2,2 0,1 1,2 1,3 0,0 0,1 0,2 0,1 0,1 -1,1l-13 0c0,3 1,5 2,6 0,1 1,1 2,2 1,0 2,0 3,0 2,0 4,0 6,-2z"/>
  <path id="5" fill="#666666" fill-rule="nonzero" d="M404 207c0,4 1,7 1,9l0 0c-1,0 -2,0 -2,0 -1,0 -2,0 -3,0l0 0c1,-2 1,-5 1,-9l0 -4c0,-2 -1,-3 -1,-4 -1,-1 -1,-1 -3,-1 -1,0 -2,0 -3,1 -1,1 -2,2 -3,3l0 5c0,4 0,7 0,9l0 0c-1,0 -1,0 -2,0 -1,0 -2,0 -3,0l0 0c1,-2 1,-5 1,-9l0 -2c0,-5 0,-8 -1,-9l0 0c2,0 3,0 4,-1 0,0 1,1 1,1l0 3 0 0c0,0 1,-1 2,-2 1,0 1,-1 2,-1 1,0 1,-1 2,-1 1,0 1,0 2,0 2,0 3,1 4,2 1,1 1,3 1,6 0,0 0,1 0,2 0,1 0,2 0,2z"/>
  <path id="6" fill="#666666" fill-rule="nonzero" d="M416 199l0 0c2,-2 5,-4 8,-4 1,0 2,1 3,1 1,1 1,2 2,3 2,-3 4,-4 7,-4 1,0 2,0 3,1 1,0 1,0 2,1 0,0 0,1 1,1 0,1 0,2 0,2 0,1 0,2 0,3l0 4c0,4 0,7 1,9l0 0c-1,0 -2,0 -3,0 -1,0 -1,0 -2,0l0 0c0,-2 0,-5 0,-9l0 -5c0,-1 0,-2 0,-3 -1,-1 -2,-1 -3,-1 -1,0 -2,0 -3,1 -1,0 -2,1 -3,2 0,0 0,1 0,2l0 4c0,4 0,7 0,9l0 0c0,0 -1,0 -2,0 -1,0 -2,0 -2,0l0 0c0,-2 0,-5 0,-9l0 -5c0,-3 -1,-4 -3,-4 -1,0 -2,0 -3,1 -1,1 -2,2 -3,3l0 5c0,4 0,7 0,9l0 0c-1,0 -1,0 -2,0 -1,0 -2,0 -2,0l-1 0c1,-2 1,-5 1,-9l0 -2c0,-5 0,-8 -1,-9l1 0c1,0 2,0 3,-1 1,0 1,1 1,1l0 3z"/>
  <path id="7" fill="#666666" fill-rule="nonzero" d="M460 205l-4 1c-2,1 -3,1 -3,2 -1,1 -1,2 -1,3 0,1 0,1 1,2 0,0 1,1 2,1 1,0 3,-1 4,-2 1,0 1,-1 1,-1l0 -6zm0 8l0 0c-1,1 -2,2 -3,3 -1,0 -2,0 -3,0 -2,0 -4,0 -5,-1 -1,-1 -1,-2 -1,-4 0,-1 0,-3 2,-4 1,-1 3,-2 6,-3l4 -1c0,0 0,0 0,0 0,-1 0,-2 0,-3 0,-1 -1,-1 -1,-1 0,-1 -1,-1 -1,-1 0,-1 -1,-1 -1,-1 0,0 -1,0 -1,0 -1,0 -2,1 -3,1 -1,1 -2,2 -2,3l-1 0 -1 -3 0 0c1,0 1,-1 2,-1 0,-1 1,-1 2,-1 1,-1 2,-1 3,-1 1,0 2,0 2,0 1,0 2,1 2,1 1,0 2,1 2,1 1,1 1,2 1,3 1,0 1,2 1,3 0,0 0,1 0,3 0,2 0,3 0,4 0,2 0,3 1,3 0,1 0,1 1,1 0,0 1,0 1,0l1 1c-1,1 -3,1 -4,1 -1,0 -2,0 -2,-1 -1,0 -2,-1 -2,-2z"/>
  <path id="8" fill="#666666" fill-rule="nonzero" d="M473 189c-1,0 -1,-1 -1,-1 0,-1 0,-1 1,-2 0,0 1,-1 1,-1 1,0 1,1 2,1 0,1 1,1 1,2 0,0 -1,1 -1,1 -1,1 -1,1 -2,1 0,0 -1,0 -1,-1zm-1 16c0,-4 0,-8 0,-9l0 -1c0,0 1,0 2,0 1,0 2,0 2,0 0,0 0,0 0,1 0,0 1,0 1,0 -1,3 -1,5 -1,8l0 3c0,4 0,6 1,9l-1 0c0,0 -1,0 -2,0 -1,0 -1,0 -2,0l0 0c0,-2 0,-5 0,-9l0 -2z"/>
  <path id="9" fill="#666666" fill-rule="nonzero" d="M484 206l0 -13c0,-4 0,-7 0,-9l0 0c2,0 3,0 4,-1 0,0 1,0 1,1 -1,3 -1,6 -1,8l0 14c0,4 0,8 1,10l0 0c-1,0 -2,0 -3,0 -1,0 -1,0 -2,0l0 0c0,-2 0,-5 0,-10z"/>
  <path id="10" fill="#666666" fill-rule="nonzero" d="M494 211l1 0c1,1 2,2 3,2 1,1 2,1 3,1 1,0 2,0 3,-1 0,0 1,-1 1,-3 0,-1 -1,-1 -1,-2 -1,0 -2,-1 -4,-1 -1,-1 -1,-1 -2,-1 -1,0 -1,-1 -2,-1 0,-1 -1,-1 -1,-2 0,0 0,-1 0,-2 0,-1 0,-2 1,-3 0,-1 1,-2 2,-2 1,-1 2,-1 4,-1 1,0 2,0 3,1 1,0 2,0 3,1l0 0 -1 3 -1 0c0,-1 -1,-2 -2,-2 -1,-1 -2,-1 -3,-1 -1,0 -1,0 -2,1 -1,0 -1,1 -1,2 0,2 1,3 4,4 1,0 2,0 3,0 0,1 1,1 2,2 0,0 1,1 1,1 0,1 1,2 1,3 0,0 -1,1 -1,1 0,1 0,1 0,2 -1,1 -1,1 -2,2 0,0 -1,0 -2,1 -1,0 -2,0 -3,0 -3,0 -5,0 -7,-1l0 -4z"/>
  <path id="11" fill="#666666" fill-rule="nonzero" d="M526 206l0 -13c0,-4 0,-7 0,-9l0 0c1,0 3,0 4,-1 0,0 1,0 1,1 -1,3 -1,6 -1,8l0 14c0,4 0,8 1,10l-1 0c0,0 -1,0 -2,0 -1,0 -1,0 -2,0l0 0c0,-2 0,-5 0,-10z"/>
  <path id="12" fill="#666666" fill-rule="nonzero" d="M540 203l8 0c1,0 1,0 1,-1 0,-1 0,-3 -1,-4 -1,-1 -2,-1 -3,-1 0,0 0,0 -1,0 0,0 -1,0 -1,1 0,0 -1,0 -1,1 -1,0 -1,1 -1,1 -1,1 -1,2 -1,3zm12 8l1 1c-1,1 -2,2 -3,3 -2,1 -3,1 -5,1 -2,0 -3,0 -4,-1 -1,0 -3,-1 -3,-2 -2,-2 -2,-4 -2,-7 0,-2 0,-3 0,-5 1,-1 2,-2 3,-3 1,-1 2,-2 3,-2 1,-1 2,-1 3,-1 1,0 2,0 3,1 1,0 2,1 3,1 0,1 1,1 1,2 0,1 1,2 1,3 0,0 0,1 0,2 0,1 0,1 -1,1l-12 0c0,3 0,5 1,6 0,1 1,1 2,2 1,0 2,0 3,0 3,0 5,0 6,-2z"/>
  <path id="13" fill="#666666" fill-rule="nonzero" d="M560 189c-1,0 -1,-1 -1,-1 0,-1 0,-1 1,-2 0,0 1,-1 1,-1 1,0 1,1 2,1 0,1 1,1 1,2 0,0 -1,1 -1,1 -1,1 -1,1 -2,1 0,0 -1,0 -1,-1zm-1 16c0,-4 0,-8 0,-9l0 -1c0,0 1,0 2,0 1,0 1,0 2,0 0,0 0,0 0,1 0,0 0,0 0,0 0,3 0,5 0,8l0 3c0,4 0,6 0,9l0 0c0,0 -1,0 -2,0 -1,0 -1,0 -2,0l0 0c0,-2 0,-5 0,-9l0 -2z"/>
  <path id="14" fill="#666666" fill-rule="nonzero" d="M579 197c-2,0 -3,1 -4,2 -1,2 -2,4 -2,6 0,3 1,5 2,7 1,1 2,2 4,2 1,0 2,0 3,-1 0,0 1,0 2,-1l0 0 1 1c-2,2 -4,3 -7,3 -3,0 -5,-1 -6,-3 -2,-2 -3,-4 -3,-7 0,-2 0,-3 1,-5 0,-1 1,-2 2,-3 1,-1 2,-2 3,-2 1,-1 3,-1 4,-1 1,0 2,0 3,1 1,0 2,0 3,0l0 1 -1 3 0 0c-2,-2 -3,-3 -5,-3z"/>
  <path id="15" fill="#666666" fill-rule="nonzero" d="M595 199l0 0c1,0 2,-1 2,-2 1,0 2,-1 3,-1 0,0 1,-1 2,-1 0,0 1,0 1,0 2,0 4,1 5,2 1,1 1,3 1,6 0,0 0,1 0,2 0,1 0,2 0,2 0,4 0,7 0,9l0 0c0,0 -1,0 -2,0 -1,0 -1,0 -2,0l0 0c0,-2 0,-5 0,-9l0 -4c0,-2 0,-3 0,-4 -1,-1 -2,-1 -3,-1 -1,0 -2,0 -3,1 -2,1 -3,2 -4,3l0 5c0,4 0,6 1,9l-1 0c0,0 -1,0 -2,0 -1,0 -1,0 -2,0l0 0c0,-2 0,-5 0,-9l0 -14c0,-4 0,-7 0,-9l0 0c1,0 3,0 4,-1 0,0 1,0 1,1 -1,3 -1,6 -1,8l0 7z"/>
  <path id="16" fill="#666666" fill-rule="nonzero" d="M617 196c0,-1 0,-2 0,-4 0,-1 0,-2 0,-2l1 0c0,-1 0,-1 1,-1 0,0 0,0 1,0 0,0 1,-1 1,-1 0,0 0,1 0,1 0,2 0,4 0,7l2 0c1,0 1,0 1,0 1,0 1,0 2,0 0,0 0,0 0,0l1 0c-1,1 -1,1 -1,2 0,0 -2,0 -3,0l-2 0 0 6c0,1 0,2 0,3 0,2 0,2 0,3 0,1 0,2 0,3 0,0 1,1 1,1 2,0 3,0 4,-1l1 1c-1,1 -2,1 -3,2 -1,0 -2,0 -3,0 -1,0 -2,0 -3,-1 0,-1 -1,-2 -1,-3 0,-1 0,-2 0,-4 0,-1 0,-3 0,-4l0 -6c-1,0 -2,0 -3,0l0 -1c0,0 0,-1 1,-1 0,0 1,0 2,0z"/>
  <path id="17" fill="#666666" fill-rule="nonzero" d="M650 216c-4,-10 -7,-16 -9,-21 1,1 2,1 3,1 1,0 2,0 2,-1l1 4 1 3c0,1 1,2 1,3 1,1 1,2 1,3 1,1 1,2 2,3l0 0c0,-1 1,-2 2,-4l2 -6c0,-3 1,-4 1,-6 1,1 1,1 2,1 1,0 1,0 2,-1 -4,9 -7,16 -9,21 0,0 0,0 -1,0 -1,0 -1,0 -1,0z"/>
  <path id="18" fill="#666666" fill-rule="nonzero" d="M667 203l9 0c0,0 1,0 1,-1 0,-1 -1,-3 -2,-4 -1,-1 -1,-1 -2,-1 -1,0 -1,0 -1,0 -1,0 -1,0 -2,1 0,0 0,0 -1,1 0,0 -1,1 -1,1 0,1 -1,2 -1,3zm13 8l1 1c-1,1 -2,2 -4,3 -1,1 -3,1 -4,1 -2,0 -3,0 -5,-1 -1,0 -2,-1 -3,-2 -1,-2 -2,-4 -2,-7 0,-2 0,-3 1,-5 0,-1 1,-2 2,-3 1,-1 2,-2 3,-2 1,-1 2,-1 4,-1 1,0 2,0 3,1 1,0 1,1 2,1 1,1 1,1 2,2 0,1 0,2 0,3 1,0 1,1 1,2 0,1 -1,1 -1,1l-13 0c0,3 0,5 1,6 1,1 2,1 3,2 0,0 1,0 2,0 3,0 5,0 7,-2z"/>
  <path id="19" fill="#666666" fill-rule="nonzero" d="M690 200l0 0c2,-2 3,-3 3,-4 1,0 2,-1 3,-1 1,0 1,0 1,0 0,0 0,0 0,0 0,0 0,0 1,0 0,0 0,0 0,0l0 1 -1 3 0 0c0,0 -1,0 -2,0 -1,0 -1,0 -2,0 0,0 -1,1 -1,1 -1,1 -1,2 -1,3 -1,0 -1,1 -1,2l0 2c0,4 0,7 1,9l0 0c-1,0 -2,0 -3,0 0,0 -1,0 -2,0l0 0c0,-2 1,-5 1,-9l0 -2c0,-5 -1,-8 -1,-9l0 0c2,0 3,0 4,-1 0,0 0,1 0,1l0 4z"/>
  <path id="20" fill="#666666" fill-rule="nonzero" d="M701 211l1 0c1,1 2,2 3,2 1,1 2,1 3,1 1,0 2,0 3,-1 1,0 1,-1 1,-3 0,-1 0,-1 -1,-2 -1,0 -2,-1 -4,-1 -1,-1 -1,-1 -2,-1 0,0 -1,-1 -2,-1 0,-1 -1,-1 -1,-2 0,0 0,-1 0,-2 0,-1 0,-2 1,-3 0,-1 1,-2 2,-2 1,-1 2,-1 4,-1 1,0 2,0 3,1 1,0 2,0 3,1l0 0 -1 3 0 0c-1,-1 -2,-2 -3,-2 -1,-1 -1,-1 -2,-1 -2,0 -2,0 -3,1 -1,0 -1,1 -1,2 0,2 1,3 4,4 1,0 2,0 3,0 0,1 1,1 2,2 0,0 1,1 1,1 0,1 1,2 1,3 0,0 0,1 -1,1 0,1 0,1 0,2 -1,1 -1,1 -2,2 0,0 -1,0 -2,1 -1,0 -2,0 -3,0 -3,0 -5,0 -7,-1l0 -4z"/>
  <path id="21" fill="#666666" fill-rule="nonzero" d="M723 203l9 0c0,0 1,0 1,-1 0,-1 -1,-3 -2,-4 0,-1 -1,-1 -2,-1 -1,0 -1,0 -1,0 0,0 -1,0 -1,1 -1,0 -1,0 -2,1 0,0 0,1 -1,1 0,1 0,2 -1,3zm13 8l1 1c-1,1 -2,2 -4,3 -1,1 -3,1 -4,1 -2,0 -3,0 -5,-1 -1,0 -2,-1 -3,-2 -1,-2 -2,-4 -2,-7 0,-2 0,-3 1,-5 1,-1 1,-2 2,-3 1,-1 2,-2 3,-2 2,-1 3,-1 4,-1 1,0 2,0 3,1 1,0 2,1 2,1 1,1 1,1 2,2 0,1 0,2 1,3 0,0 0,1 0,2 0,1 0,1 -1,1l-13 0c0,3 1,5 1,6 1,1 2,1 3,2 1,0 2,0 3,0 2,0 4,0 6,-2z"/>
  <path id="22" fill="#666666" fill-rule="nonzero" d="M760 207c0,4 0,7 1,9l0 0c-1,0 -2,0 -3,0 -1,0 -1,0 -2,0l0 0c0,-2 0,-5 0,-9l0 -4c0,-2 0,-3 0,-4 -1,-1 -2,-1 -3,-1 -1,0 -2,0 -3,1 -1,1 -3,2 -4,3l0 5c0,4 0,7 1,9l0 0c-1,0 -2,0 -3,0 0,0 -1,0 -2,0l0 0c0,-2 1,-5 1,-9l0 -2c0,-5 -1,-8 -1,-9l0 0c2,0 3,0 4,-1 0,0 0,1 0,1l0 3 0 0c1,0 2,-1 3,-2 0,0 1,-1 2,-1 1,0 1,-1 2,-1 0,0 1,0 2,0 2,0 3,1 4,2 1,1 1,3 1,6 0,0 0,1 0,2 0,1 0,2 0,2z"/>
  <path id="23" fill="#666666" fill-rule="nonzero" d="M781 210l0 -10c-1,-1 -1,-2 -2,-2 -1,-1 -2,-1 -3,-1 0,0 -1,0 -1,0 -1,0 -1,1 -2,1 0,0 -1,1 -1,1 -1,1 -1,2 -1,3 -1,1 -1,2 -1,3 0,3 1,5 2,7 1,1 2,2 3,2 1,0 2,-1 3,-1 1,-1 2,-2 3,-3zm0 3c-2,2 -4,3 -6,3 -3,0 -5,-1 -6,-3 -2,-2 -3,-4 -3,-7 0,-3 1,-6 3,-8 2,-2 5,-3 8,-3 0,0 1,0 2,0 1,1 1,1 2,1l0 -3c0,-4 0,-7 -1,-9l0 0c2,0 3,0 4,-1 1,0 1,0 1,1 0,3 -1,6 -1,8l0 15c0,3 1,6 1,9l0 0c0,0 -1,0 -2,0 0,0 -1,0 -2,0 0,0 0,0 0,0l0 -3 0 0z"/>
  <path id="24" fill="#666666" fill-rule="nonzero" d="M794 203l9 0c0,0 1,0 1,-1 0,-1 -1,-3 -2,-4 0,-1 -1,-1 -2,-1 -1,0 -1,0 -1,0 0,0 -1,0 -1,1 -1,0 -1,0 -2,1 0,0 0,1 -1,1 0,1 0,2 -1,3zm13 8l1 1c-1,1 -2,2 -4,3 -1,1 -3,1 -4,1 -2,0 -3,0 -5,-1 -1,0 -2,-1 -3,-2 -1,-2 -2,-4 -2,-7 0,-2 0,-3 1,-5 1,-1 1,-2 2,-3 1,-1 2,-2 3,-2 2,-1 3,-1 4,-1 1,0 2,0 3,1 1,0 2,1 2,1 1,1 1,1 2,2 0,1 0,2 1,3 0,0 0,1 0,2 0,1 0,1 -1,1l-13 0c0,3 1,5 1,6 1,1 2,1 3,2 1,0 2,0 2,0 3,0 5,0 7,-2z"/>
  <path id="25" fill="#666666" fill-rule="nonzero" d="M831 207c0,4 0,7 1,9l0 0c-1,0 -2,0 -3,0 -1,0 -1,0 -2,0l0 0c0,-2 0,-5 0,-9l0 -4c0,-2 0,-3 0,-4 -1,-1 -2,-1 -3,-1 -1,0 -2,0 -3,1 -1,1 -3,2 -4,3l0 5c0,4 0,7 1,9l0 0c-1,0 -2,0 -3,0 0,0 -1,0 -2,0l0 0c0,-2 1,-5 1,-9l0 -2c0,-5 -1,-8 -1,-9l0 0c2,0 3,0 4,-1 0,0 0,1 0,1l0 3 0 0c1,0 2,-1 3,-2 0,0 1,-1 2,-1 1,0 1,-1 2,-1 0,0 1,0 1,0 3,0 4,1 5,2 1,1 1,3 1,6 0,0 0,1 0,2 0,1 0,2 0,2z"/>
  <path id="26" fill="#666666" fill-rule="nonzero" d="M840 185c1,0 1,0 2,1 0,0 1,1 1,2 0,2 0,3 -1,5 0,2 0,3 0,4 -1,2 -1,3 -1,5 0,1 0,2 0,3 0,0 0,1 0,1 0,0 0,1 -1,1 0,0 0,0 0,0 0,0 0,-1 -1,-1 0,0 0,-1 0,-2 0,-1 0,-2 0,-3 0,-1 0,-2 0,-4 0,-1 -1,-2 -1,-4 0,-2 0,-3 0,-5 0,-1 0,-2 0,-2 1,-1 2,-1 2,-1zm-2 29l0 -1c0,0 0,-1 0,-1 1,0 1,-1 2,-1l0 0c1,0 1,0 2,1 0,0 1,1 1,1l0 1c0,0 -1,1 -1,1 -1,1 -1,1 -2,1l0 0c-1,0 -1,0 -2,-1 0,0 0,-1 0,-1z"/>
  <path fill="#666666" d="M167 79c49,0 88,40 88,88 0,48 -39,87 -88,87 -48,0 -87,-39 -87,-87 0,-48 39,-88 87,-88z"/>
  <g id="_1243710459488">
   <polygon fill="white" points="216,117 111,174 144,185 197,140 158,190 202,204 "/>
   <polygon fill="white" points="151,223 150,195 167,201 "/>
  </g>
  <path fill="#F07D19" d="M90 2c48,0 87,39 87,87 0,48 -39,88 -87,88 -49,0 -88,-40 -88,-88 0,-48 39,-87 88,-87z"/>
  <g id="_1243710456256">
   <polygon fill="white" points="106,92 144,125 144,59 "/>
   <polygon fill="white" points="33,59 33,125 72,92 "/>
   <path fill="white" d="M141 55c-1,-2 -3,-3 -5,-3l-95 0c-2,0 -4,1 -5,3l53 45 52 -45 0 0z"/>
   <path fill="white" d="M89 107l-14 -12 -39 34c1,1 3,2 5,2l95 0c2,0 4,-1 5,-2l-39 -34 -13 12 0 0z"/>
  </g>
 </g>
</svg>
