<?xml version="1.0" encoding="UTF-8"?>
<!DOCTYPE svg PUBLIC "-//W3C//DTD SVG 1.1//EN" "http://www.w3.org/Graphics/SVG/1.1/DTD/svg11.dtd">
<!-- Creator: CorelDRAW X8 -->
<svg xmlns="http://www.w3.org/2000/svg" xml:space="preserve" width="800px" height="800px" version="1.1" shape-rendering="geometricPrecision" text-rendering="geometricPrecision" image-rendering="optimizeQuality" fill-rule="evenodd" clip-rule="evenodd"
viewBox="0 0 800 800"
 xmlns:xlink="http://www.w3.org/1999/xlink">
 <g id="Ebene_x0020_1">
  <metadata id="CorelCorpID_0Corel-Layer"/>
  <path fill="#F07D19" d="M400 22c209,0 378,169 378,378 0,209 -169,378 -378,378 -209,0 -378,-169 -378,-378 0,-209 169,-378 378,-378z"/>
  <g id="_1243711146944">
   <polygon id="XMLID_189_" fill="white" points="220,292 314,292 314,319 220,319 "/>
   <path id="XMLID_194_" fill="white" d="M257 458c12,0 22,-9 22,-21l-43 0c0,12 10,21 21,21l0 0z"/>
   <path id="XMLID_195_" fill="white" d="M257 401c-6,0 -12,3 -16,8l33 0c-4,-5 -10,-8 -17,-8z"/>
   <path id="XMLID_213_" fill="white" d="M277 482c-6,3 -12,4 -20,4 -7,0 -14,-1 -20,-4 -8,3 -14,12 -14,21l0 1 69 0 0 -1c0,-9 -6,-18 -15,-21l0 0z"/>
   <path id="XMLID_226_" fill="white" d="M507 543l0 -205 0 0 0 -132 -353 0 0 304c0,51 42,93 93,93l285 0c-16,-15 -25,-37 -25,-60l0 0zm-299 -106l-1 0 0 -1 0 -13c0,-28 23,-50 50,-50 28,0 50,22 50,50l0 13 0 1 0 0c0,9 -3,18 -7,25 12,10 20,25 20,41l0 29 -125 0 0 -29c0,-16 8,-31 20,-41 -5,-7 -7,-16 -7,-25zm-16 -89l0 -84 150 0 0 84 -150 0zm275 95l0 29 -111 0 0 -29 111 0zm-111 -30l0 -28 111 0 0 28 -111 0zm111 89l0 28 -111 0 0 -28 111 0z"/>
   <path id="XMLID_335_" fill="white" d="M535 338l0 205c0,31 25,56 56,56 31,0 56,-25 56,-56l0 -205 -112 0z"/>
  </g>
 </g>
</svg>
