<?xml version="1.0" encoding="UTF-8"?>
<!DOCTYPE svg PUBLIC "-//W3C//DTD SVG 1.1//EN" "http://www.w3.org/Graphics/SVG/1.1/DTD/svg11.dtd">
<!-- Creator: CorelDRAW X8 -->
<svg xmlns="http://www.w3.org/2000/svg" xml:space="preserve" width="800px" height="800px" version="1.1" shape-rendering="geometricPrecision" text-rendering="geometricPrecision" image-rendering="optimizeQuality" fill-rule="evenodd" clip-rule="evenodd"
viewBox="0 0 800 800"
 xmlns:xlink="http://www.w3.org/1999/xlink">
 <g id="Ebene_x0020_1">
  <metadata id="CorelCorpID_0Corel-Layer"/>
  <path fill="#F07D19" d="M400 22c209,0 378,169 378,378 0,209 -169,378 -378,378 -209,0 -378,-169 -378,-378 0,-209 169,-378 378,-378z"/>
  <g id="_1243702663520">
   <path fill="white" d="M488 402l51 43c9,-3 19,-5 29,-6l0 -33c0,-3 2,-7 4,-10 2,-3 5,-6 8,-7 4,-2 8,-2 11,-1 4,0 7,2 10,5l0 0 78 78 0 -234 -191 165zm67 57l90 77 34 -34 0 -6 -90 -91 0 0c-1,0 -1,0 -1,0l0 0c-1,0 -1,0 -1,0 0,0 -1,0 -1,1 0,0 0,0 0,0l0 50 -8 0c-8,1 -16,2 -23,3zm104 88l20 18 0 -38 -20 20z"/>
   <polygon fill="white" points="129,237 129,565 320,402 "/>
   <path fill="white" d="M666 215c-6,-7 -15,-13 -28,-13l-468 0c-13,0 -22,6 -29,13l263 225 262 -225 0 0z"/>
   <path fill="white" d="M404 477l-69 -59 -194 165c7,7 16,13 29,13l265 0c0,-10 0,-29 7,-51l0 0c8,-31 26,-56 50,-75 8,-6 15,-11 24,-15l-43 -37 -69 59 0 0zm48 119l7 0c21,-32 44,-49 65,-58 23,-9 43,-9 54,-8l8 0 0 61c0,1 0,1 0,1l0 0c0,0 1,1 1,1l0 0c0,0 1,0 1,0 0,0 0,0 1,-1l40 -40 -98 -85c-10,5 -20,10 -28,17 -21,16 -37,39 -44,66 -6,20 -7,37 -7,46zm29 0l88 0c0,-2 -1,-3 -1,-5l0 -44c-9,0 -22,1 -37,7 -16,7 -34,20 -50,42zm129 0l28 0c13,0 22,-6 28,-13l-23 -20 -33 33z"/>
  </g>
  <path fill="white" d="M687 492l-92 -93c-3,-3 -8,-4 -11,-2 -4,2 -7,5 -7,9l0 42c-59,2 -110,42 -127,99 -7,25 -7,45 -6,53l0 2c0,4 3,8 7,10 1,0 2,0 3,0 4,0 7,-2 9,-5 41,-69 94,-70 114,-69l0 53c0,4 3,8 7,10 3,1 8,1 11,-2l92 -93c4,-4 4,-10 0,-14z"/>
 </g>
</svg>
